# xmcd CD database file
#
# Track frame offsets:
#	150
#	29194
#	70536
#	104830
#	129870
#	151527
#	188631
#	217576
#
# Disc length: 3206 seconds
#
# Revision: 0
# Processed by: cddbd v1.5.2PL0 Copyright (c) Steve Scherf et al.
# Submitted via: CDex 1.70beta2
#
DISCID=600c8408
DTITLE=Motif - Facienda [CD1]
DYEAR=2010
DGENRE=Jazz
TTITLE0=Truffle Pigs and Katmandu Stray Dogs
TTITLE1=Biggie
TTITLE2=Seksten
TTITLE3=Monk Ease
TTITLE4=Die Kunst
TTITLE5=The Intimacy of Open Doors
TTITLE6=Baksheesh
TTITLE7=Monument
EXTD=YEAR: 2010
EXTT0=
EXTT1=
EXTT2=
EXTT3=
EXTT4=
EXTT5=
EXTT6=
EXTT7=
PLAYORDER=
